<svg xmlns="http://www.w3.org/2000/svg" viewBox="0 0 600 380" width="100%" height="100%">
  <defs>
    <linearGradient id="bgTask" x1="0%" y1="0%" x2="100%" y2="100%">
      <stop offset="0%" stop-color="#0b1329" />
      <stop offset="100%" stop-color="#15284f" />
    </linearGradient>
  </defs>

  <rect width="600" height="380" rx="16" fill="url(#bgTask)" />

  <!-- Top App Bar -->
  <rect x="30" y="25" width="540" height="40" rx="10" fill="#1e293b" />
  <circle cx="55" cy="45" r="7" fill="#6366f1" />
  <text x="72" y="49" fill="#f8fafc" font-family="sans-serif" font-weight="bold" font-size="13">SmartTask Kanban</text>
  <rect x="420" y="35" width="135" height="22" rx="6" fill="#334155" />
  <text x="440" y="50" fill="#38bdf8" font-family="sans-serif" font-size="10">● Realtime Sync (4)</text>

  <!-- Kanban Column 1 (To Do) -->
  <rect x="30" y="80" width="165" height="270" rx="10" fill="#0f172a" opacity="0.6" stroke="#334155" stroke-width="1" />
  <text x="45" y="105" fill="#cbd5e1" font-family="sans-serif" font-weight="bold" font-size="12">To Do (3)</text>

  <rect x="40" y="120" width="145" height="65" rx="8" fill="#1e293b" />
  <text x="50" y="142" fill="#f8fafc" font-family="sans-serif" font-weight="bold" font-size="11">Implement Auth0</text>
  <rect x="50" y="155" width="50" height="18" rx="4" fill="#6366f1" opacity="0.3" />
  <text x="55" y="168" fill="#818cf8" font-family="sans-serif" font-size="9">Security</text>
  <circle cx="170" cy="164" r="8" fill="#ec4899" />

  <rect x="40" y="195" width="145" height="65" rx="8" fill="#1e293b" />
  <text x="50" y="217" fill="#f8fafc" font-family="sans-serif" font-weight="bold" font-size="11">Database Schema</text>
  <rect x="50" y="230" width="50" height="18" rx="4" fill="#f59e0b" opacity="0.3" />
  <text x="55" y="243" fill="#f59e0b" font-family="sans-serif" font-size="9">Backend</text>
  <circle cx="170" cy="239" r="8" fill="#38bdf8" />

  <!-- Kanban Column 2 (In Progress) -->
  <rect x="217" y="80" width="165" height="270" rx="10" fill="#0f172a" opacity="0.6" stroke="#6366f1" stroke-width="1.5" />
  <text x="232" y="105" fill="#818cf8" font-family="sans-serif" font-weight="bold" font-size="12">In Progress (2)</text>

  <rect x="227" y="120" width="145" height="85" rx="8" fill="#1e293b" stroke="#6366f1" stroke-width="1" />
  <text x="237" y="142" fill="#f8fafc" font-family="sans-serif" font-weight="bold" font-size="11">Real-time Chat WS</text>
  <text x="237" y="160" fill="#94a3b8" font-family="sans-serif" font-size="9">Socket events testing</text>
  <rect x="237" y="172" width="60" height="18" rx="4" fill="#10b981" opacity="0.3" />
  <text x="242" y="185" fill="#10b981" font-family="sans-serif" font-size="9">High Priority</text>
  <circle cx="357" cy="181" r="8" fill="#a855f7" />

  <!-- Kanban Column 3 (Done) -->
  <rect x="405" y="80" width="165" height="270" rx="10" fill="#0f172a" opacity="0.6" stroke="#334155" stroke-width="1" />
  <text x="420" y="105" fill="#10b981" font-family="sans-serif" font-weight="bold" font-size="12">Completed (5)</text>

  <rect x="415" y="120" width="145" height="65" rx="8" fill="#1e293b" opacity="0.7" />
  <text x="425" y="142" fill="#94a3b8" font-family="sans-serif" font-weight="bold" font-size="11" text-decoration="line-through">Landing Page v1</text>
  <rect x="425" y="155" width="45" height="18" rx="4" fill="#334155" />
  <text x="430" y="168" fill="#cbd5e1" font-family="sans-serif" font-size="9">Design</text>
  <circle cx="545" cy="164" r="8" fill="#10b981" />
</svg>
