<svg xmlns="http://www.w3.org/2000/svg" viewBox="0 0 600 380" width="100%" height="100%">
  <defs>
    <linearGradient id="bgKomando" x1="0%" y1="0%" x2="100%" y2="100%">
      <stop offset="0%" stop-color="#0f172a" />
      <stop offset="100%" stop-color="#1e1b4b" />
    </linearGradient>
    <linearGradient id="goldKomando" x1="0%" y1="0%" x2="100%" y2="100%">
      <stop offset="0%" stop-color="#f59e0b" />
      <stop offset="100%" stop-color="#fbbf24" />
    </linearGradient>
  </defs>

  <rect width="600" height="380" rx="16" fill="url(#bgKomando)" />

  <!-- App Header -->
  <rect x="30" y="25" width="540" height="42" rx="10" fill="#1e293b" stroke="#334155" stroke-width="1" />
  <rect x="45" y="36" width="20" height="20" rx="6" fill="url(#goldKomando)" />
  <text x="50" y="51" fill="#0f172a" font-family="sans-serif" font-weight="extrabold" font-size="12">K</text>
  <text x="75" y="51" fill="#f8fafc" font-family="sans-serif" font-weight="bold" font-size="14">KOMANDO — Tabulasi Kejurcab Paskibra</text>
  
  <rect x="440" y="35" width="115" height="22" rx="6" fill="#10b981" opacity="0.2" />
  <text x="450" y="50" fill="#10b981" font-family="sans-serif" font-size="10">● LIVE SCORE GAS</text>

  <!-- Left Column: Input Form Juri Digital -->
  <rect x="30" y="80" width="240" height="270" rx="12" fill="#131e36" stroke="#334155" stroke-width="1" />
  <text x="45" y="105" fill="#38bdf8" font-family="sans-serif" font-weight="bold" font-size="12">Input Form Juri Digital</text>
  <text x="45" y="120" fill="#94a3b8" font-family="sans-serif" font-size="10">Unit: MAN Kota Cimahi</text>

  <!-- Form Fields Mockup -->
  <rect x="45" y="135" width="210" height="32" rx="8" fill="#0f172a" stroke="#334155" />
  <text x="55" y="155" fill="#cbd5e1" font-family="sans-serif" font-size="11">Formasi &amp; Variasi</text>
  <text x="210" y="155" fill="#f59e0b" font-family="sans-serif" font-weight="bold" font-size="12">94.5</text>

  <rect x="45" y="175" width="210" height="32" rx="8" fill="#0f172a" stroke="#334155" />
  <text x="55" y="195" fill="#cbd5e1" font-family="sans-serif" font-size="11">Derap Langkah (PBB)</text>
  <text x="210" y="195" fill="#f59e0b" font-family="sans-serif" font-weight="bold" font-size="12">96.0</text>

  <rect x="45" y="215" width="210" height="32" rx="8" fill="#0f172a" stroke="#334155" />
  <text x="55" y="235" fill="#cbd5e1" font-family="sans-serif" font-size="11">Kostum &amp; Kerapihan</text>
  <text x="210" y="235" fill="#f59e0b" font-family="sans-serif" font-weight="bold" font-size="12">92.0</text>

  <rect x="45" y="260" width="210" height="36" rx="8" fill="#6366f1" />
  <text x="95" y="283" fill="#ffffff" font-family="sans-serif" font-weight="bold" font-size="11">✓ Kirim Nilai Instan</text>

  <!-- Right Column: Real-time Leaderboard -->
  <rect x="290" y="80" width="280" height="270" rx="12" fill="#131e36" stroke="#334155" stroke-width="1" />
  <text x="310" y="105" fill="#f8fafc" font-family="sans-serif" font-weight="bold" font-size="12">🏆 Klasemen Rekapitulasi Real-time</text>

  <!-- Rank 1 -->
  <rect x="305" y="125" width="250" height="42" rx="8" fill="#1e293b" stroke="#f59e0b" stroke-width="1.5" />
  <circle cx="325" cy="146" r="10" fill="#f59e0b" />
  <text x="322" y="150" fill="#0f172a" font-family="sans-serif" font-weight="bold" font-size="10">1</text>
  <text x="345" y="142" fill="#f8fafc" font-family="sans-serif" font-weight="bold" font-size="11">MAN Kota Cimahi (Tim A)</text>
  <text x="345" y="157" fill="#94a3b8" font-family="sans-serif" font-size="9">Total: 282.5 • Juara 1 Umum</text>
  <text x="510" y="150" fill="#10b981" font-family="sans-serif" font-weight="bold" font-size="13">98.2%</text>

  <!-- Rank 2 -->
  <rect x="305" y="175" width="250" height="42" rx="8" fill="#1e293b" />
  <circle cx="325" cy="196" r="10" fill="#94a3b8" />
  <text x="322" y="200" fill="#0f172a" font-family="sans-serif" font-weight="bold" font-size="10">2</text>
  <text x="345" y="192" fill="#f8fafc" font-family="sans-serif" font-weight="bold" font-size="11">SMPN 3 Cimahi</text>
  <text x="345" y="207" fill="#94a3b8" font-family="sans-serif" font-size="9">Total: 276.0 • Juara 2</text>
  <text x="510" y="200" fill="#38bdf8" font-family="sans-serif" font-weight="bold" font-size="13">95.4%</text>

  <!-- Rank 3 -->
  <rect x="305" y="225" width="250" height="42" rx="8" fill="#1e293b" />
  <circle cx="325" cy="246" r="10" fill="#d97706" />
  <text x="322" y="250" fill="#0f172a" font-family="sans-serif" font-weight="bold" font-size="10">3</text>
  <text x="345" y="242" fill="#f8fafc" font-family="sans-serif" font-weight="bold" font-size="11">Unit Tamu Bandung Raya</text>
  <text x="345" y="257" fill="#94a3b8" font-family="sans-serif" font-size="9">Total: 268.0 • Juara 3</text>
  <text x="510" y="250" fill="#38bdf8" font-family="sans-serif" font-weight="bold" font-size="13">92.0%</text>

  <rect x="305" y="280" width="250" height="30" rx="6" fill="#0f172a" stroke="#334155" />
  <text x="330" y="300" fill="#94a3b8" font-family="sans-serif" font-size="10">⚡ Google Sheets API Sync: 0s Latency</text>
</svg>
